<svg xmlns="http://www.w3.org/2000/svg" width="360" height="540"  xmlns:v="https://vecta.io/nano"><rect width="359" height="539" rx="29.944" x=".5" y=".5" fill="#fff" stroke="#000"/><path d="M30 30a9.98 9.98 0 0 0-10 10v5h5v-5a5 5 0 1 1 10 0v5c0 1.128-.375 3.065-1 3.9-4.463 9.104-9.278 17.129-14 26.1v5h20V70h-5v5h-9.5c4.489-7.915 8.218-15.572 12.5-23.6 1.25-1.669 2-4.145 2-6.4v-5a9.98 9.98 0 0 0-10-10zm300 480a9.98 9.98 0 0 0 10-10v-5h-5v5a5 5 0 1 1-10 0v-5c0-1.128.375-3.065 1-3.9 4.463-9.104 9.278-17.129 14-26.1v-5h-20v10h5v-5h9.5c-4.489 7.915-8.218 15.572-12.5 23.6-1.25 1.669-2 4.145-2 6.4v5a9.98 9.98 0 0 0 10 10zM180 45s6 15 13 25 17 20 17 20-10 10-17 20-13 25-13 25-6-15-13-25-17-20-17-20 10-10 17-20 13-25 13-25m0 360s6 15 13 25 17 20 17 20-10 10-17 20-13 25-13 25-6-15-13-25-17-20-17-20 10-10 17-20 13-25 13-25M30 90s3 7.5 6.5 12.5 8.5 10 8.5 10-5 5-8.5 10S30 135 30 135s-3-7.5-6.5-12.5-8.5-10-8.5-10 5-5 8.5-10S30 90 30 90m300 315s3 7.5 6.5 12.5 8.5 10 8.5 10-5 5-8.5 10S330 450 330 450s-3-7.5-6.5-12.5-8.5-10-8.5-10 5-5 8.5-10S330 405 330 405" fill="#f55"/></svg>