<svg xmlns="http://www.w3.org/2000/svg" xmlns:xlink="http://www.w3.org/1999/xlink" width="360" height="540" xmlns:v="https://vecta.io/nano"><rect width="359" height="539" rx="29.944" x=".5" y=".5" fill="#fff" stroke="#000"/><g fill="#f55"><path d="M30 30a9.98 9.98 0 0 0-10 10v5h5v-5a5 5 0 1 1 10 0v5a4.99 4.99 0 0 1-5 5h-5v5h5a4.99 4.99 0 0 1 5 5v10a5 5 0 1 1-10 0v-5h-5v5a9.98 9.98 0 0 0 10 10 9.98 9.98 0 0 0 10-10V60c0-3.004-1.323-5.67-3.406-7.5C38.677 50.67 40 48.004 40 45v-5a9.98 9.98 0 0 0-10-10zm300 480a9.98 9.98 0 0 0 10-10v-5h-5v5a5 5 0 1 1-10 0v-5a4.99 4.99 0 0 1 5-5h5v-5h-5a4.99 4.99 0 0 1-5-5v-10a5 5 0 1 1 10 0v5h5v-5a10 10 0 1 0-20 0v10c0 3.004 1.323 5.67 3.406 7.5-2.083 1.83-3.406 4.496-3.406 7.5v5a9.98 9.98 0 0 0 10 10zM30 90s3 7.5 6.5 12.5 8.5 10 8.5 10-5 5-8.5 10S30 135 30 135s-3-7.5-6.5-12.5-8.5-10-8.5-10 5-5 8.5-10S30 90 30 90m300 315s3 7.5 6.5 12.5 8.5 10 8.5 10-5 5-8.5 10S330 450 330 450s-3-7.5-6.5-12.5-8.5-10-8.5-10 5-5 8.5-10S330 405 330 405"/><use xlink:href="#B"/><use xlink:href="#B" y="180"/><use xlink:href="#B" y="360"/></g><defs ><path id="B" d="M180 45s6 15 13 25 17 20 17 20-10 10-17 20-13 25-13 25-6-15-13-25-17-20-17-20 10-10 17-20 13-25 13-25"/></defs></svg>