<svg xmlns="http://www.w3.org/2000/svg" xmlns:xlink="http://www.w3.org/1999/xlink" width="360" height="540" xmlns:v="https://vecta.io/nano"><rect width="359" height="539" rx="29.944" x=".5" y=".5" fill="#fff" stroke="#000"/><g fill="#f55"><path d="M30 30L20 65v5h12v10h5V70h3v-5h-3V50h-5v15h-6.8l10-35zm300 480l10-35v-5h-12v-10h-5v10h-3v5h3v15h5v-15h6.8l-10 35z"/><use xlink:href="#B"/><use xlink:href="#B" x="180"/><use xlink:href="#B" y="360"/><use xlink:href="#B" x="180" y="360"/><path d="M30 90s3 7.5 6.5 12.5 8.5 10 8.5 10-5 5-8.5 10S30 135 30 135s-3-7.5-6.5-12.5-8.5-10-8.5-10 5-5 8.5-10S30 90 30 90m300 315s3 7.5 6.5 12.5 8.5 10 8.5 10-5 5-8.5 10S330 450 330 450s-3-7.5-6.5-12.5-8.5-10-8.5-10 5-5 8.5-10S330 405 330 405"/></g><defs ><path id="B" d="M90 45s6 15 13 25 17 20 17 20-10 10-17 20-13 25-13 25-6-15-13-25-17-20-17-20 10-10 17-20 13-25 13-25"/></defs></svg>