<svg xmlns="http://www.w3.org/2000/svg" xmlns:xlink="http://www.w3.org/1999/xlink" width="360" height="540" xmlns:v="https://vecta.io/nano"><rect width="359" height="539" rx="29.944" x=".864" y=".5" fill="#fff" stroke="#000"/><g fill="#f55"><path d="M20.364 30v20h10a4.99 4.99 0 0 1 5 5v15a5 5 0 1 1-10 0v-5h-5v5a9.98 9.98 0 0 0 10 10 9.98 9.98 0 0 0 10-10V55a9.98 9.98 0 0 0-10-10h-5V35h15v-5h-15zm320 480v-20h-10a4.99 4.99 0 0 1-5-5v-15a5 5 0 1 1 10 0v5h5v-5a10 10 0 1 0-20 0v15a9.98 9.98 0 0 0 10 10h5v10h-15v5h15z"/><use xlink:href="#B"/><use xlink:href="#B" x="300" y="315"/><use xlink:href="#C"/><use xlink:href="#C" x="180"/><use xlink:href="#C" x="90" y="180"/><use xlink:href="#C" y="360"/><use xlink:href="#C" x="180" y="360"/></g><defs ><path id="B" d="M30.364 90s3 7.5 6.5 12.5 8.5 10 8.5 10-5 5-8.5 10-6.5 12.5-6.5 12.5-3-7.5-6.5-12.5-8.5-10-8.5-10 5-5 8.5-10 6.5-12.5 6.5-12.5"/><path id="C" d="M90.364 45s6 15 13 25 17 20 17 20-10 10-17 20-13 25-13 25-6-15-13-25-17-20-17-20 10-10 17-20 13-25 13-25"/></defs></svg>