<svg xmlns="http://www.w3.org/2000/svg" width="360" height="540"  xmlns:v="https://vecta.io/nano"><rect width="359" height="539" rx="29.944" x=".5" y=".5" fill="#fff" stroke="#000"/><g fill="#f55"><path d="M179 245c0-11.046-5.716-20-14-20s-15 8.954-15 20c.035.956.018 1.891 0 2.813 0 7.298 2.677 14.377 5 21 2.389 6.811 5.834 12.781 9.063 18.875C169.064 297.127 180 315 180 315s10.936-17.873 15.938-27.312c3.229-6.094 6.673-12.064 9.063-18.875 2.323-6.623 5-13.702 5-21-.028-.974-.019-1.915 0-2.812 0-11.046-6.716-20-15-20s-14 8.954-14 20zM20 30v20h10a4.99 4.99 0 0 1 5 5v15a5 5 0 1 1-10 0v-5h-5v5a9.98 9.98 0 0 0 10 10 9.98 9.98 0 0 0 10-10V55a9.98 9.98 0 0 0-10-10h-5V35h15v-5H25zm320 480v-20h-10a4.99 4.99 0 0 1-5-5v-15a5 5 0 1 1 10 0v5h5v-5a10 10 0 1 0-20 0v15a9.98 9.98 0 0 0 10 10h5v10h-15v5h15zM89 63c0-11.046-5.716-18-14-18s-15 8.954-15 20c.035.956.018 1.891 0 2.813 0 7.298 2.677 14.377 5 21 2.389 6.811 5.834 12.781 9.063 18.875C79.064 117.127 90 135 90 135s10.936-17.873 15.938-27.312c3.229-6.094 6.673-12.064 9.063-18.875 2.323-6.623 5-13.702 5-21-.028-.974-.019-1.915 0-2.812 0-11.046-6.716-20-15-20s-14 6.954-14 18c0 2-2 2-2 0z"/><path d="M269 63c0-11.046-5.716-18-14-18s-15 8.954-15 20c.035.956.018 1.891 0 2.813 0 7.298 2.677 14.377 5 21 2.389 6.811 5.834 12.781 9.063 18.875C259.064 117.127 270 135 270 135s10.936-17.873 15.938-27.312c3.229-6.094 6.673-12.064 9.063-18.875 2.323-6.623 5-13.702 5-21-.028-.974-.019-1.915 0-2.812 0-11.046-6.716-20-15-20s-14 6.954-14 18c0 2-2 2-2 0zm-90 180c0-11.046-5.716-18-14-18s-15 8.954-15 20c.035.956.018 1.891 0 2.813 0 7.298 2.677 14.377 5 21 2.389 6.811 5.834 12.781 9.063 18.875C169.064 297.127 180 315 180 315s10.936-17.873 15.938-27.312c3.229-6.094 6.673-12.064 9.063-18.875 2.323-6.623 5-13.702 5-21-.028-.974-.019-1.915 0-2.812 0-11.046-6.716-20-15-20s-14 6.954-14 18c0 2-2 2-2 0zM89 477c0 11.046-5.716 18-14 18s-15-8.954-15-20c.035-.956.018-1.891 0-2.812 0-7.298 2.677-14.377 5-21 2.389-6.811 5.834-12.781 9.063-18.875C79.064 422.873 90 405 90 405s10.936 17.873 15.938 27.313c3.229 6.094 6.673 12.064 9.063 18.875 2.323 6.623 5 13.702 5 21-.028.974-.019 1.915 0 2.813 0 11.046-6.716 20-15 20s-14-6.954-14-18c0-2-2-2-2 0zm180 0c0 11.046-5.716 18-14 18s-15-8.954-15-20c.035-.956.018-1.891 0-2.812 0-7.298 2.677-14.377 5-21 2.389-6.811 5.834-12.781 9.063-18.875C259.064 422.873 270 405 270 405s10.936 17.873 15.938 27.313c3.229 6.094 6.673 12.064 9.063 18.875 2.323 6.623 5 13.702 5 21-.028.974-.019 1.915 0 2.813 0 11.046-6.716 20-15 20s-14-6.954-14-18c0-2-2-2-2 0zM29.5 99c0-5.523-2.858-9-7-9S15 94.477 15 100a24.83 24.83 0 0 1 0 1.406c0 3.649 1.338 7.188 2.5 10.5 1.195 3.405 2.917 6.39 4.531 9.438C24.532 126.064 30 135 30 135s5.468-8.937 7.969-13.656c1.614-3.047 3.337-6.032 4.531-9.437 1.162-3.312 2.5-6.851 2.5-10.5-.014-.487-.009-.957 0-1.406 0-5.523-3.358-10-7.5-10s-7 3.477-7 9c0 1-1 1-1 0zm300 342c0 5.523-2.858 9-7 9s-7.5-4.477-7.5-10c.017-.478.009-.946 0-1.406 0-3.649 1.338-7.188 2.5-10.5 1.195-3.405 2.917-6.39 4.531-9.437C324.532 413.937 330 405 330 405s5.468 8.937 7.969 13.656c1.614 3.047 3.337 6.032 4.531 9.438 1.162 3.312 2.5 6.851 2.5 10.5-.014.487-.009.957 0 1.406 0 5.523-3.358 10-7.5 10s-7-3.477-7-9c0-1-1-1-1 0z"/></g></svg>