<svg xmlns="http://www.w3.org/2000/svg" width="360" height="540"  xmlns:v="https://vecta.io/nano"><rect width="359" height="539" rx="29.944" x=".5" y=".5" fill="#fff" stroke="#000"/><path d="M20 30v20h10a4.99 4.99 0 0 1 5 5v15a5 5 0 1 1-10 0v-5h-5v5a9.98 9.98 0 0 0 10 10 9.98 9.98 0 0 0 10-10V55a9.98 9.98 0 0 0-10-10h-5V35h15v-5H25zm320 480v-20h-10a4.99 4.99 0 0 1-5-5v-15a5 5 0 1 1 10 0v5h5v-5a10 10 0 1 0-20 0v15a9.98 9.98 0 0 0 10 10h5v10h-15v5h15zM95.008 100.984c.992 4.004 4.996 14.031 11.976 14.031 9 0 13.004-8.008 13.004-18 0-7.016-2.551-11.622-4.996-17.008-2.587-5.74-6.378-10.878-9.992-16.016C100.358 57.402 90.012 45 90.012 45S79.63 57.402 74.988 63.992c-3.614 5.138-7.406 10.276-9.992 16.016C62.587 85.394 60 90 60 97.016c0 9.992 4.004 18 13.004 18 6.98 0 10.984-10.028 12.012-14.031.992-.992.992 0 .992 1.028-.992 7.972-.992 9.992-2.02 15.98-.992 6.024-4.004 17.008-4.004 17.008 5.031-1.984 15.024-1.984 20.02 0 0 0-3.012-10.984-4.004-17.008-.992-5.988-.992-8.008-1.984-15.98 0-1.028 0-2.02.992-1.028zm180 0c.992 4.004 4.996 14.031 11.976 14.031 9 0 13.004-8.008 13.004-18 0-7.016-2.551-11.622-4.996-17.008-2.587-5.74-6.378-10.878-9.992-16.016C280.358 57.402 270.012 45 270.012 45s-10.382 12.402-15.024 18.992c-3.614 5.138-7.406 10.276-9.992 16.016C242.587 85.394 240 90 240 97.016c0 9.992 4.004 18 13.004 18 6.98 0 10.984-10.028 12.012-14.031.992-.992.992 0 .992 1.028-.992 7.972-.992 9.992-2.02 15.98-.992 6.024-4.004 17.008-4.004 17.008 5.031-1.984 15.024-1.984 20.02 0 0 0-3.012-10.984-4.004-17.008-.992-5.988-.992-8.008-1.984-15.98 0-1.028 0-2.02.992-1.028z"/><path d="M185.008 280.984c.992 4.004 4.996 14.031 11.976 14.031 9 0 13.004-8.008 13.004-18 0-7.016-2.551-11.622-4.996-17.008-2.587-5.74-6.378-10.878-9.992-16.016-4.642-6.591-14.988-18.992-14.988-18.992s-10.382 12.402-15.024 18.992c-3.614 5.138-7.406 10.276-9.992 16.016C152.587 265.394 150 270 150 277.016c0 9.992 4.004 18 13.004 18 6.98 0 10.984-10.028 12.012-14.031.992-.992.992 0 .992 1.028-.992 7.972-.992 9.992-2.02 15.98-.992 6.024-4.004 17.008-4.004 17.008 5.031-1.984 15.024-1.984 20.02 0 0 0-3.012-10.984-4.004-17.008-.992-5.988-.992-8.008-1.984-15.98 0-1.028 0-2.02.992-1.028zm-90 158.032c.992-4.004 4.996-14.031 11.976-14.031 9 0 13.004 8.008 13.004 18 0 7.016-2.551 11.622-4.996 17.008-2.587 5.74-6.378 10.878-9.992 16.016C100.358 482.599 90.012 495 90.012 495s-10.382-12.402-15.024-18.992c-3.614-5.138-7.406-10.276-9.992-16.016C62.587 454.606 60 450 60 442.984c0-9.992 4.004-18 13.004-18 6.98 0 10.984 10.028 12.012 14.031.992.992.992 0 .992-1.028-.992-7.972-.992-9.992-2.02-15.98-.992-6.024-4.004-17.008-4.004-17.008 5.031 1.984 15.024 1.984 20.02 0 0 0-3.012 10.984-4.004 17.008-.992 5.988-.992 8.008-1.984 15.98 0 1.028 0 2.02.992 1.028zm180 0c.992-4.004 4.996-14.031 11.976-14.031 9 0 13.004 8.008 13.004 18 0 7.016-2.551 11.622-4.996 17.008-2.587 5.74-6.378 10.878-9.992 16.016-4.642 6.591-14.988 18.992-14.988 18.992s-10.382-12.402-15.024-18.992c-3.614-5.138-7.406-10.276-9.992-16.016C242.587 454.606 240 450 240 442.984c0-9.992 4.004-18 13.004-18 6.98 0 10.984 10.028 12.012 14.031.992.992.992 0 .992-1.028-.992-7.972-.992-9.992-2.02-15.98-.992-6.024-4.004-17.008-4.004-17.008 5.031 1.984 15.024 1.984 20.02 0 0 0-3.012 10.984-4.004 17.008-.992 5.988-.992 8.008-1.984 15.98 0 1.028 0 2.02.992 1.028zM32.5 118c.5 2 2.5 7 6 7 4.5 0 6.5-4 6.5-9 0-3.5-1.289-5.806-2.5-8.5-1.289-2.868-3.19-5.429-5-8C35.177 96.201 30 90 30 90s-5.177 6.201-7.5 9.5c-1.81 2.571-3.711 5.132-5 8-1.211 2.694-2.5 5-2.5 8.5 0 5 2 9 6.5 9 3.5 0 5.5-5 6-7 .5-.5.5 0 .5.5-.5 4-.5 5-1 8s-2 8.5-2 8.5c2.5-1 7.5-1 10 0 0 0-1.5-5.5-2-8.5s-.5-4-1-8c0-.5 0-1 .5-.5zm300 304c.5-2 2.5-7 6-7 4.5 0 6.5 4 6.5 9 0 3.5-1.289 5.806-2.5 8.5-1.289 2.868-3.19 5.429-5 8-2.323 3.299-7.5 9.5-7.5 9.5s-5.177-6.201-7.5-9.5c-1.81-2.571-3.711-5.132-5-8-1.211-2.694-2.5-5-2.5-8.5 0-5 2-9 6.5-9 3.5 0 5.5 5 6 7 .5.5.5 0 .5-.5-.5-4-.5-5-1-8s-2-8.5-2-8.5c2.5 1 7.5 1 10 0 0 0-1.5 5.5-2 8.5s-.5 4-1 8c0 .5 0 1 .5.5z"/></svg>