<svg xmlns="http://www.w3.org/2000/svg" viewBox="0 0 1000 1000"  xmlns:v="https://vecta.io/nano"><path fill="red" d="M467.6 640.9c6.1 8.5 7.2 17.5 7.2 22.6 0 6-1.5 17.6-11.2 27.4l-183 183c-9.8 9.8-21.3 11.2-27.4 11.2-6 0-17.6-1.5-27.4-11.2L121.7 769.7c-9.8-9.8-11.2-21.3-11.2-27.4s1.5-17.6 11.2-27.4l183-183c9.8-9.8 21.3-11.2 27.4-11.2 4.3 0 11.2.8 18.3 4.6l55.6-55.6c-45.5-37.6-113.5-35-156 7.5l-183 183c-45.2 45.2-45.2 119.1 0 164.3l104 104c45.2 45.2 119.1 45.2 164.3 0l183-183c43.7-43.7 45.1-114.2 4.4-159.7l-55.1 55.1zm461-469.9L824.5 66.9c-45.2-45.2-119.1-45.2-164.3 0l-183 183c-42.5 42.5-45 110.5-7.5 156l55.6-55.6c-3.8-7.2-4.6-14.1-4.6-18.3 0-6 1.5-17.6 11.2-27.4l183-183c9.8-9.8 21.3-11.2 27.4-11.2 6 0 17.6 1.5 27.4 11.2l104.1 104.1c9.8 9.8 11.2 21.3 11.2 27.4 0 6-1.5 17.6-11.2 27.4l-183 183c-9.8 9.8-21.3 11.2-27.4 11.2-5 0-14-1.1-22.6-7.2l-55 55c45.5 40.8 116 39.4 159.7-4.4l183-183c45.3-45.1 45.3-119 .1-164.1zm-609.9 81.9c18.2 18.2 18.3 47.5 0 65.7-18.1 18.1-47.7 18-65.7 0l-92-92c-18.2-18.2-18.3-47.5 0-65.7 18.1-18.1 47.7-18 65.7 0l92 92zm85.9-66.4c0 25.7-20.6 46.5-46.5 46.5-25.7 0-46.5-21-46.5-46.5V56.4c0-25.7 20.6-46.5 46.5-46.5 25.7 0 46.5 21 46.5 46.5v130.1zm-218 125.1c25.7 0 46.5 20.6 46.5 46.5 0 25.7-21 46.5-46.5 46.5H56.5C30.8 404.5 10 383.9 10 358c0-25.7 21-46.5 46.5-46.5h130.1zm494.7 435.5c-18.2-18.2-18.3-47.5 0-65.7 18.1-18.1 47.7-18 65.7 0l92 92c18.2 18.2 18.3 47.5 0 65.7-18.1 18.1-47.7 18-65.7 0l-92-92zm-85.9 66.4c0-25.7 20.6-46.5 46.5-46.5 25.7 0 46.5 21 46.5 46.5v130.1c0 25.7-20.6 46.5-46.5 46.5-25.7 0-46.5-21-46.5-46.5V813.5zm218-125.1c-25.7 0-46.5-20.6-46.5-46.5 0-25.7 21-46.5 46.5-46.5h130.1c25.7 0 46.5 20.6 46.5 46.5 0 25.7-21 46.5-46.5 46.5H813.4z"/></svg>