<svg xmlns="http://www.w3.org/2000/svg" xmlns:xlink="http://www.w3.org/1999/xlink" width="64" height="64" xmlns:v="https://vecta.io/nano"><g fill="#fff"><use xlink:href="#B"/><use xlink:href="#C"/></g><path d="M62.925 31.127c.002 10.61-5.688 20.415-14.927 25.72a30 30 0 0 1-29.861 0C8.898 51.542 3.208 41.737 3.21 31.127s5.688-20.415 14.927-25.72a30 30 0 0 1 29.861 0c9.239 5.306 14.929 15.111 14.927 25.72z" fill="#00f"/><g fill="#fff"><use xlink:href="#B" x="13.429" y="0.869"/><use xlink:href="#C" x="13.429" y="0.869"/></g><defs ><path id="B" d="M15.763 38.922c-1.063-.882-1.325-1.499-1.347-3.174-.037-2.777 1.526-5.152 5.679-8.631 5.333-4.467 6.474-8.565 3.272-11.745-1.188-1.18-1.765-1.372-4.148-1.387-3.415-.021-4.875.961-6.753 4.54-1.675 3.193-3.052 4.181-5.232 3.757-5.755-1.119-2.914-10.116 4.418-13.992 1.669-.882 3.095-1.17 6.451-1.304 7.531-.299 12.283 2.012 14.867 7.228 1.145 2.311 1.302 3.119 1.16 5.941-.211 4.178-1.499 6.168-6.953 10.739-2.831 2.373-4.278 3.976-4.989 5.529-1.696 3.707-3.924 4.572-6.425 2.497h0z"/><path id="C" d="M14.509 51.234c-2.06-2.286-2.156-4.89-.258-7.013 2.733-3.057 7.616-1.594 8.373 2.509.875 4.746-4.972 7.991-8.115 4.504z"/></defs></svg>