<svg xmlns="http://www.w3.org/2000/svg" height="512" viewBox="0 0 128 128" width="512"  xmlns:v="https://vecta.io/nano"><rect fill="#f0f5f9" height="126" rx="9.481" width="85.35" x="28.442" y="1"/><path d="M113.794 10.481v107.036a9.486 9.486 0 0 1-9.481 9.483H37.929a9.477 9.477 0 0 1-8.611-5.515 8.9 8.9 0 0 0 2.5.346h66.4a9.486 9.486 0 0 0 9.482-9.482V5.3a9.266 9.266 0 0 0-.87-3.954 9.481 9.481 0 0 1 6.964 9.135z" fill="#d9e2e9"/><path d="M104.312 128H37.923a10.492 10.492 0 0 1-10.48-10.48V10.48A10.492 10.492 0 0 1 37.923 0h66.389a10.492 10.492 0 0 1 10.48 10.48v107.04a10.492 10.492 0 0 1-10.48 10.48zM37.923 2a8.49 8.49 0 0 0-8.48 8.48v107.04a8.49 8.49 0 0 0 8.48 8.48h66.389a8.49 8.49 0 0 0 8.48-8.48V10.48a8.49 8.49 0 0 0-8.48-8.48z" fill="#2f3a5a"/><rect fill="#f0f5f9" height="126" rx="9.481" width="85.35" x="14.206" y="1"/><path d="M99.558 10.481v107.036A9.486 9.486 0 0 1 90.076 127H23.692a9.477 9.477 0 0 1-8.611-5.515 8.9 8.9 0 0 0 2.5.346h66.4a9.486 9.486 0 0 0 9.482-9.482V5.3a9.266 9.266 0 0 0-.87-3.954 9.481 9.481 0 0 1 6.965 9.135z" fill="#d9e2e9"/><path d="M90.075 128H23.687a10.493 10.493 0 0 1-10.481-10.48V10.48A10.493 10.493 0 0 1 23.687 0h66.388a10.492 10.492 0 0 1 10.48 10.48v107.04A10.492 10.492 0 0 1 90.075 128zM23.687 2a8.49 8.49 0 0 0-8.481 8.48v107.04a8.49 8.49 0 0 0 8.481 8.48h66.388a8.49 8.49 0 0 0 8.48-8.48V10.48A8.49 8.49 0 0 0 90.075 2z" fill="#2f3a5a"/><path d="M75.117 49.713c-7.257-9.676-17.677-.93-18.235-.744-.558-.186-10.978-8.931-18.235.744S43.3 75.2 56.882 82.834C70.465 75.2 82.373 59.389 75.117 49.713z" fill="#ef5361"/><path d="M56.882 82.834q-1.177-.662-2.335-1.4c13.171-7.82 24.348-23.115 17.264-32.56a11.5 11.5 0 0 0-4.336-3.681 10.239 10.239 0 0 1 7.641 4.524c7.258 9.671-4.651 25.489-18.234 33.117z" fill="#da2a47"/><path d="M56.882 83.98l-.489-.275C46.017 77.878 37.551 68.021 35.8 59.733a12.63 12.63 0 0 1 2.043-10.62c2.637-3.516 8.612-8.351 19.035-1.333 10.425-7.021 16.4-2.183 19.034 1.333a12.631 12.631 0 0 1 2.043 10.621c-1.747 8.287-10.213 18.145-20.588 23.972zm-9.907-37.823c-2.934 0-5.45 1.386-7.528 4.156a10.715 10.715 0 0 0-1.686 9.007c1.609 7.637 9.439 16.768 19.121 22.363C66.565 76.089 74.393 66.958 76 59.321a10.716 10.716 0 0 0-1.686-9.008c-3.938-5.253-9.457-5.529-16.4-.817a3.069 3.069 0 0 1-.717.421l-.316.105-.316-.105a3.078 3.078 0 0 1-.718-.422q-4.921-3.338-8.872-3.338z" fill="#2f3a5a"/><path d="m42.5 12.725c-3.628-4.838-8.838-.465-9.117-.372-.279-.093-5.489-4.466-9.117.372s2.326 12.746 9.117 16.56c6.794-3.815 12.748-11.723 9.117-16.56z" fill="#ef5361"/><path d="M33.386 29.285q-.589-.331-1.168-.7C38.8 24.673 44.392 17.025 40.85 12.3a5.751 5.751 0 0 0-2.168-1.841 5.12 5.12 0 0 1 3.818 2.265c3.632 4.838-2.323 12.747-9.114 16.561z" fill="#da2a47"/><path d="M33.386 30.432l-.489-.275c-5.3-2.979-9.638-8.044-10.539-12.318a6.885 6.885 0 0 1 1.111-5.714c1.4-1.868 4.53-4.438 9.917-.965 5.384-3.471 8.516-.9 9.917.965a6.883 6.883 0 0 1 1.111 5.713c-.9 4.274-5.234 9.34-10.539 12.319zm-4.942-18.989a4.124 4.124 0 0 0-3.376 1.881 4.882 4.882 0 0 0-.754 4.1c.764 3.625 4.459 7.964 9.071 10.7 4.612-2.741 8.308-7.081 9.071-10.705a4.88 4.88 0 0 0-.754-4.1c-1.8-2.407-4.264-2.5-7.52-.295a1.881 1.881 0 0 1-.481.271l-.316.105-.316-.105a1.881 1.881 0 0 1-.481-.271 7.666 7.666 0 0 0-4.144-1.581z" fill="#2f3a5a"/><path d="m89.5 100.989c-3.628-4.838-8.838-.465-9.117-.372-.279-.093-5.489-4.466-9.117.372s2.326 12.746 9.117 16.56c6.787-3.815 12.741-11.723 9.117-16.56z" fill="#ef5361"/><path d="M80.378 117.549q-.589-.331-1.168-.7c6.586-3.91 12.174-11.558 8.632-16.28a5.751 5.751 0 0 0-2.168-1.841 5.12 5.12 0 0 1 3.821 2.262c3.629 4.836-2.325 12.745-9.117 16.559z" fill="#da2a47"/><path d="M80.378 118.7l-.489-.275c-5.3-2.979-9.638-8.044-10.539-12.318a6.885 6.885 0 0 1 1.111-5.714c1.4-1.867 4.529-4.437 9.917-.965 5.383-3.47 8.516-.9 9.917.965a6.885 6.885 0 0 1 1.111 5.714c-.9 4.274-5.234 9.339-10.539 12.318zm-4.941-18.992a4.124 4.124 0 0 0-3.376 1.881 4.882 4.882 0 0 0-.754 4.1c.764 3.625 4.459 7.964 9.071 10.7 4.612-2.74 8.308-7.08 9.071-10.7a4.882 4.882 0 0 0-.754-4.1c-1.8-2.407-4.264-2.5-7.52-.295a1.881 1.881 0 0 1-.481.271l-.316.105-.316-.105a1.881 1.881 0 0 1-.481-.271 7.666 7.666 0 0 0-4.144-1.586z" fill="#2f3a5a"/></svg>